<svg width="80" height="56" viewBox="0 0 80 56" fill="none" xmlns="http://www.w3.org/2000/svg">
<rect width="77" height="56" fill="#F7F9FC"/>
<path d="M30 25.11V30.88C30 33 30 33 32 34.35L37.5 37.53C38.33 38.01 39.68 38.01 40.5 37.53L46 34.35C48 33 48 33 48 30.89V25.11C48 23 48 23 46 21.65L40.5 18.47C39.68 17.99 38.33 17.99 37.5 18.47L32 21.65C30 23 30 23 30 25.11Z" stroke="#8F9BB3" stroke-width="1.5" stroke-linecap="round" stroke-linejoin="round"/>
<path d="M39 31C40.6569 31 42 29.6569 42 28C42 26.3431 40.6569 25 39 25C37.3431 25 36 26.3431 36 28C36 29.6569 37.3431 31 39 31Z" stroke="#8F9BB3" stroke-width="1.5" stroke-linecap="round" stroke-linejoin="round"/>
</svg>
