<svg width="20" height="22" viewBox="0 0 20 22" fill="none" xmlns="http://www.w3.org/2000/svg">
<path d="M9.97674 18.1628C13.3637 18.1628 16.1163 15.4102 16.1163 12.0233V6.90698C16.1163 3.52 13.3637 0.767442 9.97674 0.767442C6.58977 0.767442 3.83721 3.52 3.83721 6.90698V12.0233C3.83721 15.4102 6.58977 18.1628 9.97674 18.1628Z" stroke="white" stroke-width="1.5" stroke-linecap="round" stroke-linejoin="round"/>
<path d="M0.767442 9.97674V12.0233C0.767442 17.1088 4.89116 21.2326 9.97674 21.2326C15.0623 21.2326 19.186 17.1088 19.186 12.0233V9.97674" stroke="white" stroke-width="1.5" stroke-linecap="round" stroke-linejoin="round"/>
<path d="M7.01952 6.37488C8.84092 5.70976 10.826 5.70976 12.6474 6.37488" stroke="white" stroke-width="1.5" stroke-linecap="round" stroke-linejoin="round"/>
<path d="M7.96096 9.44465C9.18887 9.10697 10.4884 9.10697 11.7163 9.44465" stroke="white" stroke-width="1.5" stroke-linecap="round" stroke-linejoin="round"/>
</svg>
