<svg width="80" height="56" viewBox="0 0 80 56" fill="none" xmlns="http://www.w3.org/2000/svg">
<rect width="77" height="56" fill="#F7F9FC"/>
<path d="M35 18V21" stroke="#8F9BB3" stroke-width="1.5" stroke-miterlimit="10" stroke-linecap="round" stroke-linejoin="round"/>
<path d="M43 18V21" stroke="#8F9BB3" stroke-width="1.5" stroke-miterlimit="10" stroke-linecap="round" stroke-linejoin="round"/>
<path d="M30.5 25.09H47.5" stroke="#8F9BB3" stroke-width="1.5" stroke-miterlimit="10" stroke-linecap="round" stroke-linejoin="round"/>
<path d="M48 24.5V33C48 36 46.5 38 43 38H35C31.5 38 30 36 30 33V24.5C30 21.5 31.5 19.5 35 19.5H43C46.5 19.5 48 21.5 48 24.5Z" stroke="#8F9BB3" stroke-width="1.5" stroke-miterlimit="10" stroke-linecap="round" stroke-linejoin="round"/>
<path d="M42.6947 29.7H42.7037" stroke="#8F9BB3" stroke-width="2" stroke-linecap="round" stroke-linejoin="round"/>
<path d="M42.6947 32.7H42.7037" stroke="#8F9BB3" stroke-width="2" stroke-linecap="round" stroke-linejoin="round"/>
<path d="M38.9955 29.7H39.0045" stroke="#8F9BB3" stroke-width="2" stroke-linecap="round" stroke-linejoin="round"/>
<path d="M38.9955 32.7H39.0045" stroke="#8F9BB3" stroke-width="2" stroke-linecap="round" stroke-linejoin="round"/>
<path d="M35.2943 29.7H35.3033" stroke="#8F9BB3" stroke-width="2" stroke-linecap="round" stroke-linejoin="round"/>
<path d="M35.2943 32.7H35.3033" stroke="#8F9BB3" stroke-width="2" stroke-linecap="round" stroke-linejoin="round"/>
</svg>
