<svg width="26" height="27" viewBox="0 0 26 27" fill="none" xmlns="http://www.w3.org/2000/svg">
<path d="M25.1176 13.136L24.9036 12.8417C24.529 12.3869 24.0876 12.0257 23.5793 11.7582C22.897 11.3702 22.1212 11.1696 21.3186 11.1696H4.66448C3.86187 11.1696 3.09939 11.3702 2.4038 11.7582C1.88211 12.0391 1.41392 12.427 1.02599 12.9086C0.263515 13.8851 -0.0976585 15.089 0.0227326 16.2929L0.517674 22.5399C0.691572 24.426 0.918977 26.7535 5.15942 26.7535H20.837C25.0775 26.7535 25.2915 24.426 25.4788 22.5265L25.9737 16.3063C26.0941 15.1826 25.7998 14.059 25.1176 13.136ZM16.1953 20.52H9.78779C9.26609 20.52 8.85141 20.0919 8.85141 19.5836C8.85141 19.0753 9.26609 18.6472 9.78779 18.6472H16.1953C16.717 18.6472 17.1316 19.0753 17.1316 19.5836C17.1316 20.1053 16.717 20.52 16.1953 20.52Z" fill="#3366FF"/>
<path opacity="0.4" d="M1.46743 12.4538C1.76172 12.1863 2.05601 11.9455 2.4038 11.7582C3.08602 11.3703 3.86187 11.1696 4.66448 11.1696H21.332C22.1346 11.1696 22.897 11.3703 23.5926 11.7582C23.9404 11.9455 24.2481 12.1863 24.529 12.4672V11.7582V10.4606C24.529 5.68513 23.0709 4.22706 18.2954 4.22706H15.1118C14.5232 4.22706 14.5098 4.21369 14.162 3.75888L12.5568 1.60521C11.7943 0.615332 11.1924 0 9.27947 0H7.70101C2.9255 0 1.46743 1.45807 1.46743 6.23358V11.7716V12.4538Z" fill="#3366FF"/>
</svg>
