<svg width="80" height="56" viewBox="0 0 80 56" fill="none" xmlns="http://www.w3.org/2000/svg">
<rect width="77" height="56" fill="#F7F9FC"/>
<path d="M47.4774 33.6714L47.4765 33.6713C47.3335 33.6609 47.2294 33.5327 47.2387 33.4065L46.74 33.37L47.2383 33.4115C47.25 33.2706 47.25 33.1231 47.25 33.0085V33V23C47.25 22.0989 47.2084 21.345 47.0787 20.7271C46.9479 20.1037 46.72 19.5825 46.3214 19.1831C45.9227 18.7836 45.4018 18.5546 44.7776 18.4228C44.1591 18.2922 43.4038 18.25 42.5 18.25H35.5C34.5962 18.25 33.8409 18.2922 33.2224 18.4228C32.5982 18.5546 32.0773 18.7836 31.6786 19.1831C31.28 19.5825 31.0521 20.1037 30.9213 20.7271C30.7916 21.345 30.75 22.0989 30.75 23V34C30.75 34.1339 30.6339 34.25 30.5 34.25C30.3661 34.25 30.25 34.1339 30.25 34V23C30.25 20.8122 30.5906 19.559 31.3248 18.8248C32.059 18.0906 33.3122 17.75 35.5 17.75H42.5C44.6878 17.75 45.941 18.0906 46.6752 18.8248C47.4094 19.559 47.75 20.8122 47.75 23V33C47.75 33.1608 47.7499 33.2947 47.7412 33.4354C47.7299 33.574 47.5959 33.6803 47.4774 33.6714Z" fill="#292D32" stroke="#8F9BB3"/>
<path d="M47.25 31.75V31.25H46.75H33.35C31.9139 31.25 30.75 32.4139 30.75 33.85V34.5C30.75 36.2961 32.2039 37.75 34 37.75H44C45.7961 37.75 47.25 36.2961 47.25 34.5V31.75ZM44 38.25H34C31.9361 38.25 30.25 36.5639 30.25 34.5V33.85C30.25 32.137 31.6452 30.75 33.35 30.75H47.5C47.6339 30.75 47.75 30.8661 47.75 31V34.5C47.75 36.5639 46.0639 38.25 44 38.25Z" fill="#292D32" stroke="#8F9BB3"/>
<path d="M43 23.25H35C34.8661 23.25 34.75 23.1339 34.75 23C34.75 22.8661 34.8661 22.75 35 22.75H43C43.1339 22.75 43.25 22.8661 43.25 23C43.25 23.1339 43.1339 23.25 43 23.25Z" fill="#292D32" stroke="#8F9BB3"/>
<path d="M40 26.75H35C34.8661 26.75 34.75 26.6339 34.75 26.5C34.75 26.3661 34.8661 26.25 35 26.25H40C40.1339 26.25 40.25 26.3661 40.25 26.5C40.25 26.6339 40.1339 26.75 40 26.75Z" fill="#292D32" stroke="#8F9BB3"/>
</svg>
