<svg width="253" height="259" viewBox="0 0 253 259" fill="none" xmlns="http://www.w3.org/2000/svg">
<rect x="205" y="210" width="48" height="48.1157" rx="8" fill="#64E662"/>
<path d="M22 16.74V4.67001C22 3.47001 21.02 2.58001 19.83 2.68001H19.77C17.67 2.86001 14.48 3.93001 12.7 5.05001L12.53 5.16001C12.24 5.34001 11.76 5.34001 11.47 5.16001L11.22 5.01001C9.44 3.90001 6.26 2.84001 4.16 2.67001C2.97 2.57001 2 3.47001 2 4.66001V16.74C2 17.7 2.78 18.6 3.74 18.72L4.03 18.76C6.2 19.05 9.55 20.15 11.47 21.2L11.51 21.22C11.78 21.37 12.21 21.37 12.47 21.22C14.39 20.16 17.75 19.05 19.93 18.76L20.26 18.72C21.22 18.6 22 17.7 22 16.74Z" stroke="white" stroke-width="1.5" stroke-linecap="round" stroke-linejoin="round"/>
<path d="M12 5.48999V20.49" stroke="white" stroke-width="1.5" stroke-linecap="round" stroke-linejoin="round"/>
<path d="M7.75 8.48999H5.5" stroke="white" stroke-width="1.5" stroke-linecap="round" stroke-linejoin="round"/>
<path d="M8.5 11.49H5.5" stroke="white" stroke-width="1.5" stroke-linecap="round" stroke-linejoin="round"/>
<path d="M239 238.769V226.699C239 225.499 238.02 224.609 236.83 224.709H236.77C234.67 224.889 231.48 225.959 229.7 227.079L229.53 227.189C229.24 227.369 228.76 227.369 228.47 227.189L228.22 227.039C226.44 225.929 223.26 224.869 221.16 224.699C219.97 224.599 219 225.499 219 226.689V238.769C219 239.729 219.78 240.629 220.74 240.749L221.03 240.789C223.2 241.079 226.55 242.179 228.47 243.229L228.51 243.249C228.78 243.399 229.21 243.399 229.47 243.249C231.39 242.189 234.75 241.079 236.93 240.789L237.26 240.749C238.22 240.629 239 239.729 239 238.769Z" stroke="white" stroke-width="1.5" stroke-linecap="round" stroke-linejoin="round"/>
<path d="M229 227.519V242.519" stroke="white" stroke-width="1.5" stroke-linecap="round" stroke-linejoin="round"/>
<path d="M224.75 230.519H222.5" stroke="white" stroke-width="1.5" stroke-linecap="round" stroke-linejoin="round"/>
<path d="M225.5 233.519H222.5" stroke="white" stroke-width="1.5" stroke-linecap="round" stroke-linejoin="round"/>
</svg>
