<svg width="80" height="56" viewBox="0 0 80 56" fill="none" xmlns="http://www.w3.org/2000/svg">
<rect width="77" height="56" fill="#F7F9FC"/>
<path d="M37.05 18.53L31.03 22.46C29.1 23.72 29.1 26.54 31.03 27.8L37.05 31.73C38.13 32.44 39.91 32.44 40.99 31.73L46.98 27.8C48.9 26.54 48.9 23.73 46.98 22.47L40.99 18.54C39.91 17.82 38.13 17.82 37.05 18.53Z" stroke="#8F9BB3" stroke-width="1.5" stroke-linecap="round" stroke-linejoin="round"/>
<path d="M32.63 29.08L32.62 33.77C32.62 35.04 33.6 36.4 34.8 36.8L37.99 37.86C38.54 38.04 39.45 38.04 40.01 37.86L43.2 36.8C44.4 36.4 45.38 35.04 45.38 33.77V29.13" stroke="#8F9BB3" stroke-width="1.5" stroke-linecap="round" stroke-linejoin="round"/>
<path d="M48.4 31V25" stroke="#8F9BB3" stroke-width="1.5" stroke-linecap="round" stroke-linejoin="round"/>
</svg>
