<svg width="21" height="22" viewBox="0 0 21 22" fill="none" xmlns="http://www.w3.org/2000/svg">
<path d="M20.1478 18.1628V3.83721C20.1478 1.7907 19.1246 0.767442 17.0781 0.767442H12.9851C10.9385 0.767442 9.91529 1.7907 9.91529 3.83721V18.1628C9.91529 20.2093 10.9385 21.2326 12.9851 21.2326H17.0781C19.1246 21.2326 20.1478 20.2093 20.1478 18.1628Z" stroke="white" stroke-width="1.5" stroke-linecap="round"/>
<path d="M9.91529 4.86047H15.0316" stroke="white" stroke-width="1.5" stroke-linecap="round"/>
<path d="M9.91529 17.1395H14.0083" stroke="white" stroke-width="1.5" stroke-linecap="round"/>
<path d="M9.91529 12.9954L15.0316 13.0465" stroke="white" stroke-width="1.5" stroke-linecap="round"/>
<path d="M9.91529 8.95349H12.9851" stroke="white" stroke-width="1.5" stroke-linecap="round"/>
<path d="M3.79628 0.767442C2.12837 0.767442 0.767442 2.12837 0.767442 3.78605V17.0474C0.767442 17.5079 0.961861 18.2037 1.19721 18.6028L2.03628 19.9944C2.99814 21.6009 4.58419 21.6009 5.54605 19.9944L6.38512 18.6028C6.62047 18.2037 6.81488 17.5079 6.81488 17.0474V3.78605C6.81488 2.12837 5.45395 0.767442 3.79628 0.767442Z" stroke="white" stroke-width="1.5" stroke-linecap="round"/>
<path d="M6.81488 5.88372H0.767442" stroke="white" stroke-width="1.5" stroke-linecap="round"/>
</svg>
